solid cylinder
  facet normal -0.995185 -0.098017 0.000000
    outer loop
      vertex 0.02136963 0.00478815 0.00000000
      vertex 0.02136963 0.00478815 1.60000000
      vertex 0.02130238 0.00547097 1.60000000
    endloop
  endfacet
  facet normal -0.995185 -0.098017 0.000000
    outer loop
      vertex 0.02136963 0.00478815 0.00000000
      vertex 0.02130238 0.00547097 1.60000000
      vertex 0.02130238 0.00547097 0.00000000
    endloop
  endfacet
  facet normal -0.956940 -0.290285 0.000000
    outer loop
      vertex 0.02130238 0.00547097 0.00000000
      vertex 0.02130238 0.00547097 1.60000000
      vertex 0.02110321 0.00612754 1.60000000
    endloop
  endfacet
  facet normal -0.956940 -0.290285 0.000000
    outer loop
      vertex 0.02130238 0.00547097 0.00000000
      vertex 0.02110321 0.00612754 1.60000000
      vertex 0.02110321 0.00612754 0.00000000
    endloop
  endfacet
  facet normal -0.881921 -0.471397 0.000000
    outer loop
      vertex 0.02110321 0.00612754 0.00000000
      vertex 0.02110321 0.00612754 1.60000000
      vertex 0.02077977 0.00673265 1.60000000
    endloop
  endfacet
  facet normal -0.881921 -0.471397 0.000000
    outer loop
      vertex 0.02110321 0.00612754 0.00000000
      vertex 0.02077977 0.00673265 1.60000000
      vertex 0.02077977 0.00673265 0.00000000
    endloop
  endfacet
  facet normal -0.773010 -0.634393 0.000000
    outer loop
      vertex 0.02077977 0.00673265 0.00000000
      vertex 0.02077977 0.00673265 1.60000000
      vertex 0.02034450 0.00726303 1.60000000
    endloop
  endfacet
  facet normal -0.773010 -0.634393 0.000000
    outer loop
      vertex 0.02077977 0.00673265 0.00000000
      vertex 0.02034450 0.00726303 1.60000000
      vertex 0.02034450 0.00726303 0.00000000
    endloop
  endfacet
  facet normal -0.634393 -0.773010 0.000000
    outer loop
      vertex 0.02034450 0.00726303 0.00000000
      vertex 0.02034450 0.00726303 1.60000000
      vertex 0.01981412 0.00769830 1.60000000
    endloop
  endfacet
  facet normal -0.634393 -0.773010 0.000000
    outer loop
      vertex 0.02034450 0.00726303 0.00000000
      vertex 0.01981412 0.00769830 1.60000000
      vertex 0.01981412 0.00769830 0.00000000
    endloop
  endfacet
  facet normal -0.471397 -0.881921 0.000000
    outer loop
      vertex 0.01981412 0.00769830 0.00000000
      vertex 0.01981412 0.00769830 1.60000000
      vertex 0.01920902 0.00802173 1.60000000
    endloop
  endfacet
  facet normal -0.471397 -0.881921 0.000000
    outer loop
      vertex 0.01981412 0.00769830 0.00000000
      vertex 0.01920902 0.00802173 1.60000000
      vertex 0.01920902 0.00802173 0.00000000
    endloop
  endfacet
  facet normal -0.290285 -0.956940 0.000000
    outer loop
      vertex 0.01920902 0.00802173 0.00000000
      vertex 0.01920902 0.00802173 1.60000000
      vertex 0.01855244 0.00822090 1.60000000
    endloop
  endfacet
  facet normal -0.290285 -0.956940 0.000000
    outer loop
      vertex 0.01920902 0.00802173 0.00000000
      vertex 0.01855244 0.00822090 1.60000000
      vertex 0.01855244 0.00822090 0.00000000
    endloop
  endfacet
  facet normal -0.098017 -0.995185 0.000000
    outer loop
      vertex 0.01855244 0.00822090 0.00000000
      vertex 0.01855244 0.00822090 1.60000000
      vertex 0.01786963 0.00828815 1.60000000
    endloop
  endfacet
  facet normal -0.098017 -0.995185 0.000000
    outer loop
      vertex 0.01855244 0.00822090 0.00000000
      vertex 0.01786963 0.00828815 1.60000000
      vertex 0.01786963 0.00828815 0.00000000
    endloop
  endfacet
  facet normal 0.098017 -0.995185 0.000000
    outer loop
      vertex 0.01786963 0.00828815 0.00000000
      vertex 0.01786963 0.00828815 1.60000000
      vertex 0.01718681 0.00822090 1.60000000
    endloop
  endfacet
  facet normal 0.098017 -0.995185 0.000000
    outer loop
      vertex 0.01786963 0.00828815 0.00000000
      vertex 0.01718681 0.00822090 1.60000000
      vertex 0.01718681 0.00822090 0.00000000
    endloop
  endfacet
  facet normal 0.290285 -0.956940 0.000000
    outer loop
      vertex 0.01718681 0.00822090 0.00000000
      vertex 0.01718681 0.00822090 1.60000000
      vertex 0.01653024 0.00802173 1.60000000
    endloop
  endfacet
  facet normal 0.290285 -0.956940 0.000000
    outer loop
      vertex 0.01718681 0.00822090 0.00000000
      vertex 0.01653024 0.00802173 1.60000000
      vertex 0.01653024 0.00802173 0.00000000
    endloop
  endfacet
  facet normal 0.471397 -0.881921 0.000000
    outer loop
      vertex 0.01653024 0.00802173 0.00000000
      vertex 0.01653024 0.00802173 1.60000000
      vertex 0.01592513 0.00769830 1.60000000
    endloop
  endfacet
  facet normal 0.471397 -0.881921 0.000000
    outer loop
      vertex 0.01653024 0.00802173 0.00000000
      vertex 0.01592513 0.00769830 1.60000000
      vertex 0.01592513 0.00769830 0.00000000
    endloop
  endfacet
  facet normal 0.634393 -0.773010 0.000000
    outer loop
      vertex 0.01592513 0.00769830 0.00000000
      vertex 0.01592513 0.00769830 1.60000000
      vertex 0.01539475 0.00726303 1.60000000
    endloop
  endfacet
  facet normal 0.634393 -0.773010 0.000000
    outer loop
      vertex 0.01592513 0.00769830 0.00000000
      vertex 0.01539475 0.00726303 1.60000000
      vertex 0.01539475 0.00726303 0.00000000
    endloop
  endfacet
  facet normal 0.773010 -0.634393 0.000000
    outer loop
      vertex 0.01539475 0.00726303 0.00000000
      vertex 0.01539475 0.00726303 1.60000000
      vertex 0.01495948 0.00673265 1.60000000
    endloop
  endfacet
  facet normal 0.773010 -0.634393 0.000000
    outer loop
      vertex 0.01539475 0.00726303 0.00000000
      vertex 0.01495948 0.00673265 1.60000000
      vertex 0.01495948 0.00673265 0.00000000
    endloop
  endfacet
  facet normal 0.881921 -0.471397 0.000000
    outer loop
      vertex 0.01495948 0.00673265 0.00000000
      vertex 0.01495948 0.00673265 1.60000000
      vertex 0.01463605 0.00612754 1.60000000
    endloop
  endfacet
  facet normal 0.881921 -0.471397 0.000000
    outer loop
      vertex 0.01495948 0.00673265 0.00000000
      vertex 0.01463605 0.00612754 1.60000000
      vertex 0.01463605 0.00612754 0.00000000
    endloop
  endfacet
  facet normal 0.956940 -0.290285 0.000000
    outer loop
      vertex 0.01463605 0.00612754 0.00000000
      vertex 0.01463605 0.00612754 1.60000000
      vertex 0.01443688 0.00547097 1.60000000
    endloop
  endfacet
  facet normal 0.956940 -0.290285 0.000000
    outer loop
      vertex 0.01463605 0.00612754 0.00000000
      vertex 0.01443688 0.00547097 1.60000000
      vertex 0.01443688 0.00547097 0.00000000
    endloop
  endfacet
  facet normal 0.995185 -0.098017 0.000000
    outer loop
      vertex 0.01443688 0.00547097 0.00000000
      vertex 0.01443688 0.00547097 1.60000000
      vertex 0.01436963 0.00478815 1.60000000
    endloop
  endfacet
  facet normal 0.995185 -0.098017 0.000000
    outer loop
      vertex 0.01443688 0.00547097 0.00000000
      vertex 0.01436963 0.00478815 1.60000000
      vertex 0.01436963 0.00478815 0.00000000
    endloop
  endfacet
  facet normal 0.995185 0.098017 -0.000000
    outer loop
      vertex 0.01436963 0.00478815 0.00000000
      vertex 0.01436963 0.00478815 1.60000000
      vertex 0.01443688 0.00410534 1.60000000
    endloop
  endfacet
  facet normal 0.995185 0.098017 0.000000
    outer loop
      vertex 0.01436963 0.00478815 0.00000000
      vertex 0.01443688 0.00410534 1.60000000
      vertex 0.01443688 0.00410534 0.00000000
    endloop
  endfacet
  facet normal 0.956940 0.290285 -0.000000
    outer loop
      vertex 0.01443688 0.00410534 0.00000000
      vertex 0.01443688 0.00410534 1.60000000
      vertex 0.01463605 0.00344876 1.60000000
    endloop
  endfacet
  facet normal 0.956940 0.290285 0.000000
    outer loop
      vertex 0.01443688 0.00410534 0.00000000
      vertex 0.01463605 0.00344876 1.60000000
      vertex 0.01463605 0.00344876 0.00000000
    endloop
  endfacet
  facet normal 0.881921 0.471397 -0.000000
    outer loop
      vertex 0.01463605 0.00344876 0.00000000
      vertex 0.01463605 0.00344876 1.60000000
      vertex 0.01495948 0.00284366 1.60000000
    endloop
  endfacet
  facet normal 0.881921 0.471397 0.000000
    outer loop
      vertex 0.01463605 0.00344876 0.00000000
      vertex 0.01495948 0.00284366 1.60000000
      vertex 0.01495948 0.00284366 0.00000000
    endloop
  endfacet
  facet normal 0.773010 0.634393 -0.000000
    outer loop
      vertex 0.01495948 0.00284366 0.00000000
      vertex 0.01495948 0.00284366 1.60000000
      vertex 0.01539475 0.00231328 1.60000000
    endloop
  endfacet
  facet normal 0.773010 0.634393 0.000000
    outer loop
      vertex 0.01495948 0.00284366 0.00000000
      vertex 0.01539475 0.00231328 1.60000000
      vertex 0.01539475 0.00231328 0.00000000
    endloop
  endfacet
  facet normal 0.634393 0.773010 -0.000000
    outer loop
      vertex 0.01539475 0.00231328 0.00000000
      vertex 0.01539475 0.00231328 1.60000000
      vertex 0.01592513 0.00187801 1.60000000
    endloop
  endfacet
  facet normal 0.634393 0.773010 0.000000
    outer loop
      vertex 0.01539475 0.00231328 0.00000000
      vertex 0.01592513 0.00187801 1.60000000
      vertex 0.01592513 0.00187801 0.00000000
    endloop
  endfacet
  facet normal 0.471397 0.881921 -0.000000
    outer loop
      vertex 0.01592513 0.00187801 0.00000000
      vertex 0.01592513 0.00187801 1.60000000
      vertex 0.01653024 0.00155457 1.60000000
    endloop
  endfacet
  facet normal 0.471397 0.881921 0.000000
    outer loop
      vertex 0.01592513 0.00187801 0.00000000
      vertex 0.01653024 0.00155457 1.60000000
      vertex 0.01653024 0.00155457 0.00000000
    endloop
  endfacet
  facet normal 0.290285 0.956940 -0.000000
    outer loop
      vertex 0.01653024 0.00155457 0.00000000
      vertex 0.01653024 0.00155457 1.60000000
      vertex 0.01718681 0.00135540 1.60000000
    endloop
  endfacet
  facet normal 0.290285 0.956940 0.000000
    outer loop
      vertex 0.01653024 0.00155457 0.00000000
      vertex 0.01718681 0.00135540 1.60000000
      vertex 0.01718681 0.00135540 0.00000000
    endloop
  endfacet
  facet normal 0.098017 0.995185 -0.000000
    outer loop
      vertex 0.01718681 0.00135540 0.00000000
      vertex 0.01718681 0.00135540 1.60000000
      vertex 0.01786963 0.00128815 1.60000000
    endloop
  endfacet
  facet normal 0.098017 0.995185 0.000000
    outer loop
      vertex 0.01718681 0.00135540 0.00000000
      vertex 0.01786963 0.00128815 1.60000000
      vertex 0.01786963 0.00128815 0.00000000
    endloop
  endfacet
  facet normal -0.098017 0.995185 0.000000
    outer loop
      vertex 0.01786963 0.00128815 0.00000000
      vertex 0.01786963 0.00128815 1.60000000
      vertex 0.01855244 0.00135540 1.60000000
    endloop
  endfacet
  facet normal -0.098017 0.995185 0.000000
    outer loop
      vertex 0.01786963 0.00128815 0.00000000
      vertex 0.01855244 0.00135540 1.60000000
      vertex 0.01855244 0.00135540 0.00000000
    endloop
  endfacet
  facet normal -0.290285 0.956940 0.000000
    outer loop
      vertex 0.01855244 0.00135540 0.00000000
      vertex 0.01855244 0.00135540 1.60000000
      vertex 0.01920902 0.00155457 1.60000000
    endloop
  endfacet
  facet normal -0.290285 0.956940 0.000000
    outer loop
      vertex 0.01855244 0.00135540 0.00000000
      vertex 0.01920902 0.00155457 1.60000000
      vertex 0.01920902 0.00155457 0.00000000
    endloop
  endfacet
  facet normal -0.471397 0.881921 0.000000
    outer loop
      vertex 0.01920902 0.00155457 0.00000000
      vertex 0.01920902 0.00155457 1.60000000
      vertex 0.01981412 0.00187801 1.60000000
    endloop
  endfacet
  facet normal -0.471397 0.881921 0.000000
    outer loop
      vertex 0.01920902 0.00155457 0.00000000
      vertex 0.01981412 0.00187801 1.60000000
      vertex 0.01981412 0.00187801 0.00000000
    endloop
  endfacet
  facet normal -0.634393 0.773010 0.000000
    outer loop
      vertex 0.01981412 0.00187801 0.00000000
      vertex 0.01981412 0.00187801 1.60000000
      vertex 0.02034450 0.00231328 1.60000000
    endloop
  endfacet
  facet normal -0.634393 0.773010 0.000000
    outer loop
      vertex 0.01981412 0.00187801 0.00000000
      vertex 0.02034450 0.00231328 1.60000000
      vertex 0.02034450 0.00231328 0.00000000
    endloop
  endfacet
  facet normal -0.773010 0.634393 0.000000
    outer loop
      vertex 0.02034450 0.00231328 0.00000000
      vertex 0.02034450 0.00231328 1.60000000
      vertex 0.02077977 0.00284366 1.60000000
    endloop
  endfacet
  facet normal -0.773010 0.634393 0.000000
    outer loop
      vertex 0.02034450 0.00231328 0.00000000
      vertex 0.02077977 0.00284366 1.60000000
      vertex 0.02077977 0.00284366 0.00000000
    endloop
  endfacet
  facet normal -0.881921 0.471397 0.000000
    outer loop
      vertex 0.02077977 0.00284366 0.00000000
      vertex 0.02077977 0.00284366 1.60000000
      vertex 0.02110321 0.00344876 1.60000000
    endloop
  endfacet
  facet normal -0.881921 0.471397 0.000000
    outer loop
      vertex 0.02077977 0.00284366 0.00000000
      vertex 0.02110321 0.00344876 1.60000000
      vertex 0.02110321 0.00344876 0.00000000
    endloop
  endfacet
  facet normal -0.956940 0.290285 0.000000
    outer loop
      vertex 0.02110321 0.00344876 0.00000000
      vertex 0.02110321 0.00344876 1.60000000
      vertex 0.02130238 0.00410534 1.60000000
    endloop
  endfacet
  facet normal -0.956940 0.290285 0.000000
    outer loop
      vertex 0.02110321 0.00344876 0.00000000
      vertex 0.02130238 0.00410534 1.60000000
      vertex 0.02130238 0.00410534 0.00000000
    endloop
  endfacet
  facet normal -0.995185 0.098017 0.000000
    outer loop
      vertex 0.02130238 0.00410534 0.00000000
      vertex 0.02130238 0.00410534 1.60000000
      vertex 0.02136963 0.00478815 1.60000000
    endloop
  endfacet
  facet normal -0.995185 0.098017 0.000000
    outer loop
      vertex 0.02130238 0.00410534 0.00000000
      vertex 0.02136963 0.00478815 1.60000000
      vertex 0.02136963 0.00478815 0.00000000
    endloop
  endfacet
  facet normal 0.000000 0.000000 -1.000000
    outer loop
      vertex 0.01786963 0.00478815 1.60000000
      vertex 0.02130238 0.00547097 1.60000000
      vertex 0.02136963 0.00478815 1.60000000
    endloop
  endfacet
  facet normal 0.000000 0.000000 1.000000
    outer loop
      vertex 0.01786963 0.00478815 0.00000000
      vertex 0.02136963 0.00478815 0.00000000
      vertex 0.02130238 0.00547097 0.00000000
    endloop
  endfacet
  facet normal 0.000000 0.000000 -1.000000
    outer loop
      vertex 0.01786963 0.00478815 1.60000000
      vertex 0.02110321 0.00612754 1.60000000
      vertex 0.02130238 0.00547097 1.60000000
    endloop
  endfacet
  facet normal 0.000000 0.000000 1.000000
    outer loop
      vertex 0.01786963 0.00478815 0.00000000
      vertex 0.02130238 0.00547097 0.00000000
      vertex 0.02110321 0.00612754 0.00000000
    endloop
  endfacet
  facet normal 0.000000 0.000000 -1.000000
    outer loop
      vertex 0.01786963 0.00478815 1.60000000
      vertex 0.02077977 0.00673265 1.60000000
      vertex 0.02110321 0.00612754 1.60000000
    endloop
  endfacet
  facet normal 0.000000 0.000000 1.000000
    outer loop
      vertex 0.01786963 0.00478815 0.00000000
      vertex 0.02110321 0.00612754 0.00000000
      vertex 0.02077977 0.00673265 0.00000000
    endloop
  endfacet
  facet normal 0.000000 0.000000 -1.000000
    outer loop
      vertex 0.01786963 0.00478815 1.60000000
      vertex 0.02034450 0.00726303 1.60000000
      vertex 0.02077977 0.00673265 1.60000000
    endloop
  endfacet
  facet normal 0.000000 0.000000 1.000000
    outer loop
      vertex 0.01786963 0.00478815 0.00000000
      vertex 0.02077977 0.00673265 0.00000000
      vertex 0.02034450 0.00726303 0.00000000
    endloop
  endfacet
  facet normal 0.000000 0.000000 -1.000000
    outer loop
      vertex 0.01786963 0.00478815 1.60000000
      vertex 0.01981412 0.00769830 1.60000000
      vertex 0.02034450 0.00726303 1.60000000
    endloop
  endfacet
  facet normal 0.000000 0.000000 1.000000
    outer loop
      vertex 0.01786963 0.00478815 0.00000000
      vertex 0.02034450 0.00726303 0.00000000
      vertex 0.01981412 0.00769830 0.00000000
    endloop
  endfacet
  facet normal 0.000000 0.000000 -1.000000
    outer loop
      vertex 0.01786963 0.00478815 1.60000000
      vertex 0.01920902 0.00802173 1.60000000
      vertex 0.01981412 0.00769830 1.60000000
    endloop
  endfacet
  facet normal 0.000000 0.000000 1.000000
    outer loop
      vertex 0.01786963 0.00478815 0.00000000
      vertex 0.01981412 0.00769830 0.00000000
      vertex 0.01920902 0.00802173 0.00000000
    endloop
  endfacet
  facet normal 0.000000 0.000000 -1.000000
    outer loop
      vertex 0.01786963 0.00478815 1.60000000
      vertex 0.01855244 0.00822090 1.60000000
      vertex 0.01920902 0.00802173 1.60000000
    endloop
  endfacet
  facet normal 0.000000 0.000000 1.000000
    outer loop
      vertex 0.01786963 0.00478815 0.00000000
      vertex 0.01920902 0.00802173 0.00000000
      vertex 0.01855244 0.00822090 0.00000000
    endloop
  endfacet
  facet normal 0.000000 0.000000 -1.000000
    outer loop
      vertex 0.01786963 0.00478815 1.60000000
      vertex 0.01786963 0.00828815 1.60000000
      vertex 0.01855244 0.00822090 1.60000000
    endloop
  endfacet
  facet normal 0.000000 0.000000 1.000000
    outer loop
      vertex 0.01786963 0.00478815 0.00000000
      vertex 0.01855244 0.00822090 0.00000000
      vertex 0.01786963 0.00828815 0.00000000
    endloop
  endfacet
  facet normal 0.000000 0.000000 -1.000000
    outer loop
      vertex 0.01786963 0.00478815 1.60000000
      vertex 0.01718681 0.00822090 1.60000000
      vertex 0.01786963 0.00828815 1.60000000
    endloop
  endfacet
  facet normal 0.000000 -0.000000 1.000000
    outer loop
      vertex 0.01786963 0.00478815 0.00000000
      vertex 0.01786963 0.00828815 0.00000000
      vertex 0.01718681 0.00822090 0.00000000
    endloop
  endfacet
  facet normal 0.000000 0.000000 -1.000000
    outer loop
      vertex 0.01786963 0.00478815 1.60000000
      vertex 0.01653024 0.00802173 1.60000000
      vertex 0.01718681 0.00822090 1.60000000
    endloop
  endfacet
  facet normal 0.000000 0.000000 1.000000
    outer loop
      vertex 0.01786963 0.00478815 0.00000000
      vertex 0.01718681 0.00822090 0.00000000
      vertex 0.01653024 0.00802173 0.00000000
    endloop
  endfacet
  facet normal 0.000000 0.000000 -1.000000
    outer loop
      vertex 0.01786963 0.00478815 1.60000000
      vertex 0.01592513 0.00769830 1.60000000
      vertex 0.01653024 0.00802173 1.60000000
    endloop
  endfacet
  facet normal 0.000000 0.000000 1.000000
    outer loop
      vertex 0.01786963 0.00478815 0.00000000
      vertex 0.01653024 0.00802173 0.00000000
      vertex 0.01592513 0.00769830 0.00000000
    endloop
  endfacet
  facet normal 0.000000 0.000000 -1.000000
    outer loop
      vertex 0.01786963 0.00478815 1.60000000
      vertex 0.01539475 0.00726303 1.60000000
      vertex 0.01592513 0.00769830 1.60000000
    endloop
  endfacet
  facet normal 0.000000 0.000000 1.000000
    outer loop
      vertex 0.01786963 0.00478815 0.00000000
      vertex 0.01592513 0.00769830 0.00000000
      vertex 0.01539475 0.00726303 0.00000000
    endloop
  endfacet
  facet normal 0.000000 0.000000 -1.000000
    outer loop
      vertex 0.01786963 0.00478815 1.60000000
      vertex 0.01495948 0.00673265 1.60000000
      vertex 0.01539475 0.00726303 1.60000000
    endloop
  endfacet
  facet normal 0.000000 0.000000 1.000000
    outer loop
      vertex 0.01786963 0.00478815 0.00000000
      vertex 0.01539475 0.00726303 0.00000000
      vertex 0.01495948 0.00673265 0.00000000
    endloop
  endfacet
  facet normal 0.000000 0.000000 -1.000000
    outer loop
      vertex 0.01786963 0.00478815 1.60000000
      vertex 0.01463605 0.00612754 1.60000000
      vertex 0.01495948 0.00673265 1.60000000
    endloop
  endfacet
  facet normal 0.000000 0.000000 1.000000
    outer loop
      vertex 0.01786963 0.00478815 0.00000000
      vertex 0.01495948 0.00673265 0.00000000
      vertex 0.01463605 0.00612754 0.00000000
    endloop
  endfacet
  facet normal 0.000000 0.000000 -1.000000
    outer loop
      vertex 0.01786963 0.00478815 1.60000000
      vertex 0.01443688 0.00547097 1.60000000
      vertex 0.01463605 0.00612754 1.60000000
    endloop
  endfacet
  facet normal 0.000000 0.000000 1.000000
    outer loop
      vertex 0.01786963 0.00478815 0.00000000
      vertex 0.01463605 0.00612754 0.00000000
      vertex 0.01443688 0.00547097 0.00000000
    endloop
  endfacet
  facet normal 0.000000 0.000000 -1.000000
    outer loop
      vertex 0.01786963 0.00478815 1.60000000
      vertex 0.01436963 0.00478815 1.60000000
      vertex 0.01443688 0.00547097 1.60000000
    endloop
  endfacet
  facet normal 0.000000 0.000000 1.000000
    outer loop
      vertex 0.01786963 0.00478815 0.00000000
      vertex 0.01443688 0.00547097 0.00000000
      vertex 0.01436963 0.00478815 0.00000000
    endloop
  endfacet
  facet normal -0.000000 0.000000 -1.000000
    outer loop
      vertex 0.01786963 0.00478815 1.60000000
      vertex 0.01443688 0.00410534 1.60000000
      vertex 0.01436963 0.00478815 1.60000000
    endloop
  endfacet
  facet normal 0.000000 0.000000 1.000000
    outer loop
      vertex 0.01786963 0.00478815 0.00000000
      vertex 0.01436963 0.00478815 0.00000000
      vertex 0.01443688 0.00410534 0.00000000
    endloop
  endfacet
  facet normal 0.000000 0.000000 -1.000000
    outer loop
      vertex 0.01786963 0.00478815 1.60000000
      vertex 0.01463605 0.00344876 1.60000000
      vertex 0.01443688 0.00410534 1.60000000
    endloop
  endfacet
  facet normal 0.000000 0.000000 1.000000
    outer loop
      vertex 0.01786963 0.00478815 0.00000000
      vertex 0.01443688 0.00410534 0.00000000
      vertex 0.01463605 0.00344876 0.00000000
    endloop
  endfacet
  facet normal 0.000000 0.000000 -1.000000
    outer loop
      vertex 0.01786963 0.00478815 1.60000000
      vertex 0.01495948 0.00284366 1.60000000
      vertex 0.01463605 0.00344876 1.60000000
    endloop
  endfacet
  facet normal 0.000000 0.000000 1.000000
    outer loop
      vertex 0.01786963 0.00478815 0.00000000
      vertex 0.01463605 0.00344876 0.00000000
      vertex 0.01495948 0.00284366 0.00000000
    endloop
  endfacet
  facet normal 0.000000 0.000000 -1.000000
    outer loop
      vertex 0.01786963 0.00478815 1.60000000
      vertex 0.01539475 0.00231328 1.60000000
      vertex 0.01495948 0.00284366 1.60000000
    endloop
  endfacet
  facet normal 0.000000 0.000000 1.000000
    outer loop
      vertex 0.01786963 0.00478815 0.00000000
      vertex 0.01495948 0.00284366 0.00000000
      vertex 0.01539475 0.00231328 0.00000000
    endloop
  endfacet
  facet normal 0.000000 0.000000 -1.000000
    outer loop
      vertex 0.01786963 0.00478815 1.60000000
      vertex 0.01592513 0.00187801 1.60000000
      vertex 0.01539475 0.00231328 1.60000000
    endloop
  endfacet
  facet normal 0.000000 0.000000 1.000000
    outer loop
      vertex 0.01786963 0.00478815 0.00000000
      vertex 0.01539475 0.00231328 0.00000000
      vertex 0.01592513 0.00187801 0.00000000
    endloop
  endfacet
  facet normal 0.000000 0.000000 -1.000000
    outer loop
      vertex 0.01786963 0.00478815 1.60000000
      vertex 0.01653024 0.00155457 1.60000000
      vertex 0.01592513 0.00187801 1.60000000
    endloop
  endfacet
  facet normal 0.000000 0.000000 1.000000
    outer loop
      vertex 0.01786963 0.00478815 0.00000000
      vertex 0.01592513 0.00187801 0.00000000
      vertex 0.01653024 0.00155457 0.00000000
    endloop
  endfacet
  facet normal 0.000000 0.000000 -1.000000
    outer loop
      vertex 0.01786963 0.00478815 1.60000000
      vertex 0.01718681 0.00135540 1.60000000
      vertex 0.01653024 0.00155457 1.60000000
    endloop
  endfacet
  facet normal 0.000000 0.000000 1.000000
    outer loop
      vertex 0.01786963 0.00478815 0.00000000
      vertex 0.01653024 0.00155457 0.00000000
      vertex 0.01718681 0.00135540 0.00000000
    endloop
  endfacet
  facet normal 0.000000 -0.000000 -1.000000
    outer loop
      vertex 0.01786963 0.00478815 1.60000000
      vertex 0.01786963 0.00128815 1.60000000
      vertex 0.01718681 0.00135540 1.60000000
    endloop
  endfacet
  facet normal 0.000000 0.000000 1.000000
    outer loop
      vertex 0.01786963 0.00478815 0.00000000
      vertex 0.01718681 0.00135540 0.00000000
      vertex 0.01786963 0.00128815 0.00000000
    endloop
  endfacet
  facet normal 0.000000 0.000000 -1.000000
    outer loop
      vertex 0.01786963 0.00478815 1.60000000
      vertex 0.01855244 0.00135540 1.60000000
      vertex 0.01786963 0.00128815 1.60000000
    endloop
  endfacet
  facet normal 0.000000 0.000000 1.000000
    outer loop
      vertex 0.01786963 0.00478815 0.00000000
      vertex 0.01786963 0.00128815 0.00000000
      vertex 0.01855244 0.00135540 0.00000000
    endloop
  endfacet
  facet normal 0.000000 0.000000 -1.000000
    outer loop
      vertex 0.01786963 0.00478815 1.60000000
      vertex 0.01920902 0.00155457 1.60000000
      vertex 0.01855244 0.00135540 1.60000000
    endloop
  endfacet
  facet normal 0.000000 0.000000 1.000000
    outer loop
      vertex 0.01786963 0.00478815 0.00000000
      vertex 0.01855244 0.00135540 0.00000000
      vertex 0.01920902 0.00155457 0.00000000
    endloop
  endfacet
  facet normal 0.000000 0.000000 -1.000000
    outer loop
      vertex 0.01786963 0.00478815 1.60000000
      vertex 0.01981412 0.00187801 1.60000000
      vertex 0.01920902 0.00155457 1.60000000
    endloop
  endfacet
  facet normal 0.000000 0.000000 1.000000
    outer loop
      vertex 0.01786963 0.00478815 0.00000000
      vertex 0.01920902 0.00155457 0.00000000
      vertex 0.01981412 0.00187801 0.00000000
    endloop
  endfacet
  facet normal 0.000000 0.000000 -1.000000
    outer loop
      vertex 0.01786963 0.00478815 1.60000000
      vertex 0.02034450 0.00231328 1.60000000
      vertex 0.01981412 0.00187801 1.60000000
    endloop
  endfacet
  facet normal 0.000000 0.000000 1.000000
    outer loop
      vertex 0.01786963 0.00478815 0.00000000
      vertex 0.01981412 0.00187801 0.00000000
      vertex 0.02034450 0.00231328 0.00000000
    endloop
  endfacet
  facet normal 0.000000 0.000000 -1.000000
    outer loop
      vertex 0.01786963 0.00478815 1.60000000
      vertex 0.02077977 0.00284366 1.60000000
      vertex 0.02034450 0.00231328 1.60000000
    endloop
  endfacet
  facet normal 0.000000 0.000000 1.000000
    outer loop
      vertex 0.01786963 0.00478815 0.00000000
      vertex 0.02034450 0.00231328 0.00000000
      vertex 0.02077977 0.00284366 0.00000000
    endloop
  endfacet
  facet normal 0.000000 0.000000 -1.000000
    outer loop
      vertex 0.01786963 0.00478815 1.60000000
      vertex 0.02110321 0.00344876 1.60000000
      vertex 0.02077977 0.00284366 1.60000000
    endloop
  endfacet
  facet normal 0.000000 0.000000 1.000000
    outer loop
      vertex 0.01786963 0.00478815 0.00000000
      vertex 0.02077977 0.00284366 0.00000000
      vertex 0.02110321 0.00344876 0.00000000
    endloop
  endfacet
  facet normal 0.000000 0.000000 -1.000000
    outer loop
      vertex 0.01786963 0.00478815 1.60000000
      vertex 0.02130238 0.00410534 1.60000000
      vertex 0.02110321 0.00344876 1.60000000
    endloop
  endfacet
  facet normal 0.000000 0.000000 1.000000
    outer loop
      vertex 0.01786963 0.00478815 0.00000000
      vertex 0.02110321 0.00344876 0.00000000
      vertex 0.02130238 0.00410534 0.00000000
    endloop
  endfacet
  facet normal 0.000000 0.000000 -1.000000
    outer loop
      vertex 0.01786963 0.00478815 1.60000000
      vertex 0.02136963 0.00478815 1.60000000
      vertex 0.02130238 0.00410534 1.60000000
    endloop
  endfacet
  facet normal -0.000000 0.000000 1.000000
    outer loop
      vertex 0.01786963 0.00478815 0.00000000
      vertex 0.02130238 0.00410534 0.00000000
      vertex 0.02136963 0.00478815 0.00000000
    endloop
  endfacet
endsolid cylinder
