solid cylinder
  facet normal 0.997859 0.065403 0.000000
    outer loop
      vertex 0.03009703 0.00685870 -0.05000000
      vertex 0.03005854 0.00744607 -0.05000000
      vertex 0.03005854 0.00744607 1.65000000
    endloop
  endfacet
  facet normal 0.997859 0.065403 -0.000000
    outer loop
      vertex 0.03009703 0.00685870 -0.05000000
      vertex 0.03005854 0.00744607 1.65000000
      vertex 0.03009703 0.00685870 1.65000000
    endloop
  endfacet
  facet normal 0.000000 0.000000 -1.000000
    outer loop
      vertex 0.02559703 0.00685870 -0.05000000
      vertex 0.03005854 0.00744607 -0.05000000
      vertex 0.03009703 0.00685870 -0.05000000
    endloop
  endfacet
  facet normal 0.000000 0.000000 1.000000
    outer loop
      vertex 0.02559703 0.00685870 1.65000000
      vertex 0.03009703 0.00685870 1.65000000
      vertex 0.03005854 0.00744607 1.65000000
    endloop
  endfacet
  facet normal 0.980785 0.195090 0.000000
    outer loop
      vertex 0.03005854 0.00744607 -0.05000000
      vertex 0.02994370 0.00802339 -0.05000000
      vertex 0.02994370 0.00802339 1.65000000
    endloop
  endfacet
  facet normal 0.980785 0.195090 -0.000000
    outer loop
      vertex 0.03005854 0.00744607 -0.05000000
      vertex 0.02994370 0.00802339 1.65000000
      vertex 0.03005854 0.00744607 1.65000000
    endloop
  endfacet
  facet normal 0.000000 0.000000 -1.000000
    outer loop
      vertex 0.02559703 0.00685870 -0.05000000
      vertex 0.02994370 0.00802339 -0.05000000
      vertex 0.03005854 0.00744607 -0.05000000
    endloop
  endfacet
  facet normal 0.000000 0.000000 1.000000
    outer loop
      vertex 0.02559703 0.00685870 1.65000000
      vertex 0.03005854 0.00744607 1.65000000
      vertex 0.02994370 0.00802339 1.65000000
    endloop
  endfacet
  facet normal 0.946930 0.321439 0.000000
    outer loop
      vertex 0.02994370 0.00802339 -0.05000000
      vertex 0.02975449 0.00858078 -0.05000000
      vertex 0.02975449 0.00858078 1.65000000
    endloop
  endfacet
  facet normal 0.946930 0.321439 -0.000000
    outer loop
      vertex 0.02994370 0.00802339 -0.05000000
      vertex 0.02975449 0.00858078 1.65000000
      vertex 0.02994370 0.00802339 1.65000000
    endloop
  endfacet
  facet normal 0.000000 0.000000 -1.000000
    outer loop
      vertex 0.02559703 0.00685870 -0.05000000
      vertex 0.02975449 0.00858078 -0.05000000
      vertex 0.02994370 0.00802339 -0.05000000
    endloop
  endfacet
  facet normal 0.000000 0.000000 1.000000
    outer loop
      vertex 0.02559703 0.00685870 1.65000000
      vertex 0.02994370 0.00802339 1.65000000
      vertex 0.02975449 0.00858078 1.65000000
    endloop
  endfacet
  facet normal 0.896873 0.442289 0.000000
    outer loop
      vertex 0.02975449 0.00858078 -0.05000000
      vertex 0.02949415 0.00910870 -0.05000000
      vertex 0.02949415 0.00910870 1.65000000
    endloop
  endfacet
  facet normal 0.896873 0.442289 -0.000000
    outer loop
      vertex 0.02975449 0.00858078 -0.05000000
      vertex 0.02949415 0.00910870 1.65000000
      vertex 0.02975449 0.00858078 1.65000000
    endloop
  endfacet
  facet normal 0.000000 0.000000 -1.000000
    outer loop
      vertex 0.02559703 0.00685870 -0.05000000
      vertex 0.02949415 0.00910870 -0.05000000
      vertex 0.02975449 0.00858078 -0.05000000
    endloop
  endfacet
  facet normal 0.000000 0.000000 1.000000
    outer loop
      vertex 0.02559703 0.00685870 1.65000000
      vertex 0.02975449 0.00858078 1.65000000
      vertex 0.02949415 0.00910870 1.65000000
    endloop
  endfacet
  facet normal 0.831470 0.555570 0.000000
    outer loop
      vertex 0.02949415 0.00910870 -0.05000000
      vertex 0.02916712 0.00959813 -0.05000000
      vertex 0.02916712 0.00959813 1.65000000
    endloop
  endfacet
  facet normal 0.831470 0.555570 -0.000000
    outer loop
      vertex 0.02949415 0.00910870 -0.05000000
      vertex 0.02916712 0.00959813 1.65000000
      vertex 0.02949415 0.00910870 1.65000000
    endloop
  endfacet
  facet normal 0.000000 0.000000 -1.000000
    outer loop
      vertex 0.02559703 0.00685870 -0.05000000
      vertex 0.02916712 0.00959813 -0.05000000
      vertex 0.02949415 0.00910870 -0.05000000
    endloop
  endfacet
  facet normal 0.000000 0.000000 1.000000
    outer loop
      vertex 0.02559703 0.00685870 1.65000000
      vertex 0.02949415 0.00910870 1.65000000
      vertex 0.02916712 0.00959813 1.65000000
    endloop
  endfacet
  facet normal 0.751840 0.659346 0.000000
    outer loop
      vertex 0.02916712 0.00959813 -0.05000000
      vertex 0.02877901 0.01004069 -0.05000000
      vertex 0.02877901 0.01004069 1.65000000
    endloop
  endfacet
  facet normal 0.751840 0.659346 -0.000000
    outer loop
      vertex 0.02916712 0.00959813 -0.05000000
      vertex 0.02877901 0.01004069 1.65000000
      vertex 0.02916712 0.00959813 1.65000000
    endloop
  endfacet
  facet normal 0.000000 0.000000 -1.000000
    outer loop
      vertex 0.02559703 0.00685870 -0.05000000
      vertex 0.02877901 0.01004069 -0.05000000
      vertex 0.02916712 0.00959813 -0.05000000
    endloop
  endfacet
  facet normal 0.000000 0.000000 1.000000
    outer loop
      vertex 0.02559703 0.00685870 1.65000000
      vertex 0.02916712 0.00959813 1.65000000
      vertex 0.02877901 0.01004069 1.65000000
    endloop
  endfacet
  facet normal 0.659346 0.751840 0.000000
    outer loop
      vertex 0.02877901 0.01004069 -0.05000000
      vertex 0.02833646 0.01042879 -0.05000000
      vertex 0.02833646 0.01042879 1.65000000
    endloop
  endfacet
  facet normal 0.659346 0.751840 -0.000000
    outer loop
      vertex 0.02877901 0.01004069 -0.05000000
      vertex 0.02833646 0.01042879 1.65000000
      vertex 0.02877901 0.01004069 1.65000000
    endloop
  endfacet
  facet normal 0.000000 0.000000 -1.000000
    outer loop
      vertex 0.02559703 0.00685870 -0.05000000
      vertex 0.02833646 0.01042879 -0.05000000
      vertex 0.02877901 0.01004069 -0.05000000
    endloop
  endfacet
  facet normal 0.000000 0.000000 1.000000
    outer loop
      vertex 0.02559703 0.00685870 1.65000000
      vertex 0.02877901 0.01004069 1.65000000
      vertex 0.02833646 0.01042879 1.65000000
    endloop
  endfacet
  facet normal 0.555570 0.831470 0.000000
    outer loop
      vertex 0.02833646 0.01042879 -0.05000000
      vertex 0.02784703 0.01075582 -0.05000000
      vertex 0.02784703 0.01075582 1.65000000
    endloop
  endfacet
  facet normal 0.555570 0.831470 -0.000000
    outer loop
      vertex 0.02833646 0.01042879 -0.05000000
      vertex 0.02784703 0.01075582 1.65000000
      vertex 0.02833646 0.01042879 1.65000000
    endloop
  endfacet
  facet normal 0.000000 0.000000 -1.000000
    outer loop
      vertex 0.02559703 0.00685870 -0.05000000
      vertex 0.02784703 0.01075582 -0.05000000
      vertex 0.02833646 0.01042879 -0.05000000
    endloop
  endfacet
  facet normal 0.000000 0.000000 1.000000
    outer loop
      vertex 0.02559703 0.00685870 1.65000000
      vertex 0.02833646 0.01042879 1.65000000
      vertex 0.02784703 0.01075582 1.65000000
    endloop
  endfacet
  facet normal 0.442289 0.896873 0.000000
    outer loop
      vertex 0.02784703 0.01075582 -0.05000000
      vertex 0.02731911 0.01101616 -0.05000000
      vertex 0.02731911 0.01101616 1.65000000
    endloop
  endfacet
  facet normal 0.442289 0.896873 -0.000000
    outer loop
      vertex 0.02784703 0.01075582 -0.05000000
      vertex 0.02731911 0.01101616 1.65000000
      vertex 0.02784703 0.01075582 1.65000000
    endloop
  endfacet
  facet normal 0.000000 0.000000 -1.000000
    outer loop
      vertex 0.02559703 0.00685870 -0.05000000
      vertex 0.02731911 0.01101616 -0.05000000
      vertex 0.02784703 0.01075582 -0.05000000
    endloop
  endfacet
  facet normal 0.000000 0.000000 1.000000
    outer loop
      vertex 0.02559703 0.00685870 1.65000000
      vertex 0.02784703 0.01075582 1.65000000
      vertex 0.02731911 0.01101616 1.65000000
    endloop
  endfacet
  facet normal 0.321439 0.946930 0.000000
    outer loop
      vertex 0.02731911 0.01101616 -0.05000000
      vertex 0.02676172 0.01120537 -0.05000000
      vertex 0.02676172 0.01120537 1.65000000
    endloop
  endfacet
  facet normal 0.321439 0.946930 -0.000000
    outer loop
      vertex 0.02731911 0.01101616 -0.05000000
      vertex 0.02676172 0.01120537 1.65000000
      vertex 0.02731911 0.01101616 1.65000000
    endloop
  endfacet
  facet normal 0.000000 0.000000 -1.000000
    outer loop
      vertex 0.02559703 0.00685870 -0.05000000
      vertex 0.02676172 0.01120537 -0.05000000
      vertex 0.02731911 0.01101616 -0.05000000
    endloop
  endfacet
  facet normal 0.000000 0.000000 1.000000
    outer loop
      vertex 0.02559703 0.00685870 1.65000000
      vertex 0.02731911 0.01101616 1.65000000
      vertex 0.02676172 0.01120537 1.65000000
    endloop
  endfacet
  facet normal 0.195090 0.980785 0.000000
    outer loop
      vertex 0.02676172 0.01120537 -0.05000000
      vertex 0.02618440 0.01132021 -0.05000000
      vertex 0.02618440 0.01132021 1.65000000
    endloop
  endfacet
  facet normal 0.195090 0.980785 -0.000000
    outer loop
      vertex 0.02676172 0.01120537 -0.05000000
      vertex 0.02618440 0.01132021 1.65000000
      vertex 0.02676172 0.01120537 1.65000000
    endloop
  endfacet
  facet normal 0.000000 0.000000 -1.000000
    outer loop
      vertex 0.02559703 0.00685870 -0.05000000
      vertex 0.02618440 0.01132021 -0.05000000
      vertex 0.02676172 0.01120537 -0.05000000
    endloop
  endfacet
  facet normal 0.000000 0.000000 1.000000
    outer loop
      vertex 0.02559703 0.00685870 1.65000000
      vertex 0.02676172 0.01120537 1.65000000
      vertex 0.02618440 0.01132021 1.65000000
    endloop
  endfacet
  facet normal 0.065403 0.997859 0.000000
    outer loop
      vertex 0.02618440 0.01132021 -0.05000000
      vertex 0.02559703 0.01135870 -0.05000000
      vertex 0.02559703 0.01135870 1.65000000
    endloop
  endfacet
  facet normal 0.065403 0.997859 -0.000000
    outer loop
      vertex 0.02618440 0.01132021 -0.05000000
      vertex 0.02559703 0.01135870 1.65000000
      vertex 0.02618440 0.01132021 1.65000000
    endloop
  endfacet
  facet normal 0.000000 0.000000 -1.000000
    outer loop
      vertex 0.02559703 0.00685870 -0.05000000
      vertex 0.02559703 0.01135870 -0.05000000
      vertex 0.02618440 0.01132021 -0.05000000
    endloop
  endfacet
  facet normal 0.000000 0.000000 1.000000
    outer loop
      vertex 0.02559703 0.00685870 1.65000000
      vertex 0.02618440 0.01132021 1.65000000
      vertex 0.02559703 0.01135870 1.65000000
    endloop
  endfacet
  facet normal -0.065403 0.997859 0.000000
    outer loop
      vertex 0.02559703 0.01135870 -0.05000000
      vertex 0.02500967 0.01132021 -0.05000000
      vertex 0.02500967 0.01132021 1.65000000
    endloop
  endfacet
  facet normal -0.065403 0.997859 0.000000
    outer loop
      vertex 0.02559703 0.01135870 -0.05000000
      vertex 0.02500967 0.01132021 1.65000000
      vertex 0.02559703 0.01135870 1.65000000
    endloop
  endfacet
  facet normal 0.000000 0.000000 -1.000000
    outer loop
      vertex 0.02559703 0.00685870 -0.05000000
      vertex 0.02500967 0.01132021 -0.05000000
      vertex 0.02559703 0.01135870 -0.05000000
    endloop
  endfacet
  facet normal 0.000000 -0.000000 1.000000
    outer loop
      vertex 0.02559703 0.00685870 1.65000000
      vertex 0.02559703 0.01135870 1.65000000
      vertex 0.02500967 0.01132021 1.65000000
    endloop
  endfacet
  facet normal -0.195090 0.980785 0.000000
    outer loop
      vertex 0.02500967 0.01132021 -0.05000000
      vertex 0.02443235 0.01120537 -0.05000000
      vertex 0.02443235 0.01120537 1.65000000
    endloop
  endfacet
  facet normal -0.195090 0.980785 0.000000
    outer loop
      vertex 0.02500967 0.01132021 -0.05000000
      vertex 0.02443235 0.01120537 1.65000000
      vertex 0.02500967 0.01132021 1.65000000
    endloop
  endfacet
  facet normal 0.000000 0.000000 -1.000000
    outer loop
      vertex 0.02559703 0.00685870 -0.05000000
      vertex 0.02443235 0.01120537 -0.05000000
      vertex 0.02500967 0.01132021 -0.05000000
    endloop
  endfacet
  facet normal 0.000000 0.000000 1.000000
    outer loop
      vertex 0.02559703 0.00685870 1.65000000
      vertex 0.02500967 0.01132021 1.65000000
      vertex 0.02443235 0.01120537 1.65000000
    endloop
  endfacet
  facet normal -0.321439 0.946930 0.000000
    outer loop
      vertex 0.02443235 0.01120537 -0.05000000
      vertex 0.02387496 0.01101616 -0.05000000
      vertex 0.02387496 0.01101616 1.65000000
    endloop
  endfacet
  facet normal -0.321439 0.946930 0.000000
    outer loop
      vertex 0.02443235 0.01120537 -0.05000000
      vertex 0.02387496 0.01101616 1.65000000
      vertex 0.02443235 0.01120537 1.65000000
    endloop
  endfacet
  facet normal 0.000000 0.000000 -1.000000
    outer loop
      vertex 0.02559703 0.00685870 -0.05000000
      vertex 0.02387496 0.01101616 -0.05000000
      vertex 0.02443235 0.01120537 -0.05000000
    endloop
  endfacet
  facet normal 0.000000 0.000000 1.000000
    outer loop
      vertex 0.02559703 0.00685870 1.65000000
      vertex 0.02443235 0.01120537 1.65000000
      vertex 0.02387496 0.01101616 1.65000000
    endloop
  endfacet
  facet normal -0.442289 0.896873 0.000000
    outer loop
      vertex 0.02387496 0.01101616 -0.05000000
      vertex 0.02334703 0.01075582 -0.05000000
      vertex 0.02334703 0.01075582 1.65000000
    endloop
  endfacet
  facet normal -0.442289 0.896873 0.000000
    outer loop
      vertex 0.02387496 0.01101616 -0.05000000
      vertex 0.02334703 0.01075582 1.65000000
      vertex 0.02387496 0.01101616 1.65000000
    endloop
  endfacet
  facet normal 0.000000 0.000000 -1.000000
    outer loop
      vertex 0.02559703 0.00685870 -0.05000000
      vertex 0.02334703 0.01075582 -0.05000000
      vertex 0.02387496 0.01101616 -0.05000000
    endloop
  endfacet
  facet normal 0.000000 0.000000 1.000000
    outer loop
      vertex 0.02559703 0.00685870 1.65000000
      vertex 0.02387496 0.01101616 1.65000000
      vertex 0.02334703 0.01075582 1.65000000
    endloop
  endfacet
  facet normal -0.555570 0.831470 0.000000
    outer loop
      vertex 0.02334703 0.01075582 -0.05000000
      vertex 0.02285761 0.01042879 -0.05000000
      vertex 0.02285761 0.01042879 1.65000000
    endloop
  endfacet
  facet normal -0.555570 0.831470 0.000000
    outer loop
      vertex 0.02334703 0.01075582 -0.05000000
      vertex 0.02285761 0.01042879 1.65000000
      vertex 0.02334703 0.01075582 1.65000000
    endloop
  endfacet
  facet normal 0.000000 0.000000 -1.000000
    outer loop
      vertex 0.02559703 0.00685870 -0.05000000
      vertex 0.02285761 0.01042879 -0.05000000
      vertex 0.02334703 0.01075582 -0.05000000
    endloop
  endfacet
  facet normal 0.000000 0.000000 1.000000
    outer loop
      vertex 0.02559703 0.00685870 1.65000000
      vertex 0.02334703 0.01075582 1.65000000
      vertex 0.02285761 0.01042879 1.65000000
    endloop
  endfacet
  facet normal -0.659346 0.751840 0.000000
    outer loop
      vertex 0.02285761 0.01042879 -0.05000000
      vertex 0.02241505 0.01004069 -0.05000000
      vertex 0.02241505 0.01004069 1.65000000
    endloop
  endfacet
  facet normal -0.659346 0.751840 0.000000
    outer loop
      vertex 0.02285761 0.01042879 -0.05000000
      vertex 0.02241505 0.01004069 1.65000000
      vertex 0.02285761 0.01042879 1.65000000
    endloop
  endfacet
  facet normal 0.000000 0.000000 -1.000000
    outer loop
      vertex 0.02559703 0.00685870 -0.05000000
      vertex 0.02241505 0.01004069 -0.05000000
      vertex 0.02285761 0.01042879 -0.05000000
    endloop
  endfacet
  facet normal 0.000000 0.000000 1.000000
    outer loop
      vertex 0.02559703 0.00685870 1.65000000
      vertex 0.02285761 0.01042879 1.65000000
      vertex 0.02241505 0.01004069 1.65000000
    endloop
  endfacet
  facet normal -0.751840 0.659346 0.000000
    outer loop
      vertex 0.02241505 0.01004069 -0.05000000
      vertex 0.02202694 0.00959813 -0.05000000
      vertex 0.02202694 0.00959813 1.65000000
    endloop
  endfacet
  facet normal -0.751840 0.659346 0.000000
    outer loop
      vertex 0.02241505 0.01004069 -0.05000000
      vertex 0.02202694 0.00959813 1.65000000
      vertex 0.02241505 0.01004069 1.65000000
    endloop
  endfacet
  facet normal 0.000000 0.000000 -1.000000
    outer loop
      vertex 0.02559703 0.00685870 -0.05000000
      vertex 0.02202694 0.00959813 -0.05000000
      vertex 0.02241505 0.01004069 -0.05000000
    endloop
  endfacet
  facet normal 0.000000 0.000000 1.000000
    outer loop
      vertex 0.02559703 0.00685870 1.65000000
      vertex 0.02241505 0.01004069 1.65000000
      vertex 0.02202694 0.00959813 1.65000000
    endloop
  endfacet
  facet normal -0.831470 0.555570 0.000000
    outer loop
      vertex 0.02202694 0.00959813 -0.05000000
      vertex 0.02169992 0.00910870 -0.05000000
      vertex 0.02169992 0.00910870 1.65000000
    endloop
  endfacet
  facet normal -0.831470 0.555570 0.000000
    outer loop
      vertex 0.02202694 0.00959813 -0.05000000
      vertex 0.02169992 0.00910870 1.65000000
      vertex 0.02202694 0.00959813 1.65000000
    endloop
  endfacet
  facet normal 0.000000 0.000000 -1.000000
    outer loop
      vertex 0.02559703 0.00685870 -0.05000000
      vertex 0.02169992 0.00910870 -0.05000000
      vertex 0.02202694 0.00959813 -0.05000000
    endloop
  endfacet
  facet normal 0.000000 0.000000 1.000000
    outer loop
      vertex 0.02559703 0.00685870 1.65000000
      vertex 0.02202694 0.00959813 1.65000000
      vertex 0.02169992 0.00910870 1.65000000
    endloop
  endfacet
  facet normal -0.896873 0.442289 0.000000
    outer loop
      vertex 0.02169992 0.00910870 -0.05000000
      vertex 0.02143958 0.00858078 -0.05000000
      vertex 0.02143958 0.00858078 1.65000000
    endloop
  endfacet
  facet normal -0.896873 0.442289 0.000000
    outer loop
      vertex 0.02169992 0.00910870 -0.05000000
      vertex 0.02143958 0.00858078 1.65000000
      vertex 0.02169992 0.00910870 1.65000000
    endloop
  endfacet
  facet normal 0.000000 0.000000 -1.000000
    outer loop
      vertex 0.02559703 0.00685870 -0.05000000
      vertex 0.02143958 0.00858078 -0.05000000
      vertex 0.02169992 0.00910870 -0.05000000
    endloop
  endfacet
  facet normal 0.000000 0.000000 1.000000
    outer loop
      vertex 0.02559703 0.00685870 1.65000000
      vertex 0.02169992 0.00910870 1.65000000
      vertex 0.02143958 0.00858078 1.65000000
    endloop
  endfacet
  facet normal -0.946930 0.321439 0.000000
    outer loop
      vertex 0.02143958 0.00858078 -0.05000000
      vertex 0.02125037 0.00802339 -0.05000000
      vertex 0.02125037 0.00802339 1.65000000
    endloop
  endfacet
  facet normal -0.946930 0.321439 0.000000
    outer loop
      vertex 0.02143958 0.00858078 -0.05000000
      vertex 0.02125037 0.00802339 1.65000000
      vertex 0.02143958 0.00858078 1.65000000
    endloop
  endfacet
  facet normal 0.000000 0.000000 -1.000000
    outer loop
      vertex 0.02559703 0.00685870 -0.05000000
      vertex 0.02125037 0.00802339 -0.05000000
      vertex 0.02143958 0.00858078 -0.05000000
    endloop
  endfacet
  facet normal 0.000000 0.000000 1.000000
    outer loop
      vertex 0.02559703 0.00685870 1.65000000
      vertex 0.02143958 0.00858078 1.65000000
      vertex 0.02125037 0.00802339 1.65000000
    endloop
  endfacet
  facet normal -0.980785 0.195090 0.000000
    outer loop
      vertex 0.02125037 0.00802339 -0.05000000
      vertex 0.02113553 0.00744607 -0.05000000
      vertex 0.02113553 0.00744607 1.65000000
    endloop
  endfacet
  facet normal -0.980785 0.195090 0.000000
    outer loop
      vertex 0.02125037 0.00802339 -0.05000000
      vertex 0.02113553 0.00744607 1.65000000
      vertex 0.02125037 0.00802339 1.65000000
    endloop
  endfacet
  facet normal 0.000000 0.000000 -1.000000
    outer loop
      vertex 0.02559703 0.00685870 -0.05000000
      vertex 0.02113553 0.00744607 -0.05000000
      vertex 0.02125037 0.00802339 -0.05000000
    endloop
  endfacet
  facet normal 0.000000 0.000000 1.000000
    outer loop
      vertex 0.02559703 0.00685870 1.65000000
      vertex 0.02125037 0.00802339 1.65000000
      vertex 0.02113553 0.00744607 1.65000000
    endloop
  endfacet
  facet normal -0.997859 0.065403 0.000000
    outer loop
      vertex 0.02113553 0.00744607 -0.05000000
      vertex 0.02109703 0.00685870 -0.05000000
      vertex 0.02109703 0.00685870 1.65000000
    endloop
  endfacet
  facet normal -0.997859 0.065403 0.000000
    outer loop
      vertex 0.02113553 0.00744607 -0.05000000
      vertex 0.02109703 0.00685870 1.65000000
      vertex 0.02113553 0.00744607 1.65000000
    endloop
  endfacet
  facet normal 0.000000 0.000000 -1.000000
    outer loop
      vertex 0.02559703 0.00685870 -0.05000000
      vertex 0.02109703 0.00685870 -0.05000000
      vertex 0.02113553 0.00744607 -0.05000000
    endloop
  endfacet
  facet normal 0.000000 0.000000 1.000000
    outer loop
      vertex 0.02559703 0.00685870 1.65000000
      vertex 0.02113553 0.00744607 1.65000000
      vertex 0.02109703 0.00685870 1.65000000
    endloop
  endfacet
  facet normal -0.997859 -0.065403 0.000000
    outer loop
      vertex 0.02109703 0.00685870 -0.05000000
      vertex 0.02113553 0.00627134 -0.05000000
      vertex 0.02113553 0.00627134 1.65000000
    endloop
  endfacet
  facet normal -0.997859 -0.065403 0.000000
    outer loop
      vertex 0.02109703 0.00685870 -0.05000000
      vertex 0.02113553 0.00627134 1.65000000
      vertex 0.02109703 0.00685870 1.65000000
    endloop
  endfacet
  facet normal -0.000000 0.000000 -1.000000
    outer loop
      vertex 0.02559703 0.00685870 -0.05000000
      vertex 0.02113553 0.00627134 -0.05000000
      vertex 0.02109703 0.00685870 -0.05000000
    endloop
  endfacet
  facet normal 0.000000 0.000000 1.000000
    outer loop
      vertex 0.02559703 0.00685870 1.65000000
      vertex 0.02109703 0.00685870 1.65000000
      vertex 0.02113553 0.00627134 1.65000000
    endloop
  endfacet
  facet normal -0.980785 -0.195090 0.000000
    outer loop
      vertex 0.02113553 0.00627134 -0.05000000
      vertex 0.02125037 0.00569402 -0.05000000
      vertex 0.02125037 0.00569402 1.65000000
    endloop
  endfacet
  facet normal -0.980785 -0.195090 0.000000
    outer loop
      vertex 0.02113553 0.00627134 -0.05000000
      vertex 0.02125037 0.00569402 1.65000000
      vertex 0.02113553 0.00627134 1.65000000
    endloop
  endfacet
  facet normal 0.000000 0.000000 -1.000000
    outer loop
      vertex 0.02559703 0.00685870 -0.05000000
      vertex 0.02125037 0.00569402 -0.05000000
      vertex 0.02113553 0.00627134 -0.05000000
    endloop
  endfacet
  facet normal 0.000000 0.000000 1.000000
    outer loop
      vertex 0.02559703 0.00685870 1.65000000
      vertex 0.02113553 0.00627134 1.65000000
      vertex 0.02125037 0.00569402 1.65000000
    endloop
  endfacet
  facet normal -0.946930 -0.321439 0.000000
    outer loop
      vertex 0.02125037 0.00569402 -0.05000000
      vertex 0.02143958 0.00513663 -0.05000000
      vertex 0.02143958 0.00513663 1.65000000
    endloop
  endfacet
  facet normal -0.946930 -0.321439 0.000000
    outer loop
      vertex 0.02125037 0.00569402 -0.05000000
      vertex 0.02143958 0.00513663 1.65000000
      vertex 0.02125037 0.00569402 1.65000000
    endloop
  endfacet
  facet normal 0.000000 0.000000 -1.000000
    outer loop
      vertex 0.02559703 0.00685870 -0.05000000
      vertex 0.02143958 0.00513663 -0.05000000
      vertex 0.02125037 0.00569402 -0.05000000
    endloop
  endfacet
  facet normal 0.000000 0.000000 1.000000
    outer loop
      vertex 0.02559703 0.00685870 1.65000000
      vertex 0.02125037 0.00569402 1.65000000
      vertex 0.02143958 0.00513663 1.65000000
    endloop
  endfacet
  facet normal -0.896873 -0.442289 0.000000
    outer loop
      vertex 0.02143958 0.00513663 -0.05000000
      vertex 0.02169992 0.00460870 -0.05000000
      vertex 0.02169992 0.00460870 1.65000000
    endloop
  endfacet
  facet normal -0.896873 -0.442289 0.000000
    outer loop
      vertex 0.02143958 0.00513663 -0.05000000
      vertex 0.02169992 0.00460870 1.65000000
      vertex 0.02143958 0.00513663 1.65000000
    endloop
  endfacet
  facet normal 0.000000 0.000000 -1.000000
    outer loop
      vertex 0.02559703 0.00685870 -0.05000000
      vertex 0.02169992 0.00460870 -0.05000000
      vertex 0.02143958 0.00513663 -0.05000000
    endloop
  endfacet
  facet normal 0.000000 0.000000 1.000000
    outer loop
      vertex 0.02559703 0.00685870 1.65000000
      vertex 0.02143958 0.00513663 1.65000000
      vertex 0.02169992 0.00460870 1.65000000
    endloop
  endfacet
  facet normal -0.831470 -0.555570 0.000000
    outer loop
      vertex 0.02169992 0.00460870 -0.05000000
      vertex 0.02202694 0.00411928 -0.05000000
      vertex 0.02202694 0.00411928 1.65000000
    endloop
  endfacet
  facet normal -0.831470 -0.555570 0.000000
    outer loop
      vertex 0.02169992 0.00460870 -0.05000000
      vertex 0.02202694 0.00411928 1.65000000
      vertex 0.02169992 0.00460870 1.65000000
    endloop
  endfacet
  facet normal 0.000000 0.000000 -1.000000
    outer loop
      vertex 0.02559703 0.00685870 -0.05000000
      vertex 0.02202694 0.00411928 -0.05000000
      vertex 0.02169992 0.00460870 -0.05000000
    endloop
  endfacet
  facet normal 0.000000 0.000000 1.000000
    outer loop
      vertex 0.02559703 0.00685870 1.65000000
      vertex 0.02169992 0.00460870 1.65000000
      vertex 0.02202694 0.00411928 1.65000000
    endloop
  endfacet
  facet normal -0.751840 -0.659346 0.000000
    outer loop
      vertex 0.02202694 0.00411928 -0.05000000
      vertex 0.02241505 0.00367672 -0.05000000
      vertex 0.02241505 0.00367672 1.65000000
    endloop
  endfacet
  facet normal -0.751840 -0.659346 0.000000
    outer loop
      vertex 0.02202694 0.00411928 -0.05000000
      vertex 0.02241505 0.00367672 1.65000000
      vertex 0.02202694 0.00411928 1.65000000
    endloop
  endfacet
  facet normal 0.000000 0.000000 -1.000000
    outer loop
      vertex 0.02559703 0.00685870 -0.05000000
      vertex 0.02241505 0.00367672 -0.05000000
      vertex 0.02202694 0.00411928 -0.05000000
    endloop
  endfacet
  facet normal 0.000000 0.000000 1.000000
    outer loop
      vertex 0.02559703 0.00685870 1.65000000
      vertex 0.02202694 0.00411928 1.65000000
      vertex 0.02241505 0.00367672 1.65000000
    endloop
  endfacet
  facet normal -0.659346 -0.751840 0.000000
    outer loop
      vertex 0.02241505 0.00367672 -0.05000000
      vertex 0.02285761 0.00328861 -0.05000000
      vertex 0.02285761 0.00328861 1.65000000
    endloop
  endfacet
  facet normal -0.659346 -0.751840 0.000000
    outer loop
      vertex 0.02241505 0.00367672 -0.05000000
      vertex 0.02285761 0.00328861 1.65000000
      vertex 0.02241505 0.00367672 1.65000000
    endloop
  endfacet
  facet normal 0.000000 0.000000 -1.000000
    outer loop
      vertex 0.02559703 0.00685870 -0.05000000
      vertex 0.02285761 0.00328861 -0.05000000
      vertex 0.02241505 0.00367672 -0.05000000
    endloop
  endfacet
  facet normal 0.000000 0.000000 1.000000
    outer loop
      vertex 0.02559703 0.00685870 1.65000000
      vertex 0.02241505 0.00367672 1.65000000
      vertex 0.02285761 0.00328861 1.65000000
    endloop
  endfacet
  facet normal -0.555570 -0.831470 0.000000
    outer loop
      vertex 0.02285761 0.00328861 -0.05000000
      vertex 0.02334703 0.00296159 -0.05000000
      vertex 0.02334703 0.00296159 1.65000000
    endloop
  endfacet
  facet normal -0.555570 -0.831470 0.000000
    outer loop
      vertex 0.02285761 0.00328861 -0.05000000
      vertex 0.02334703 0.00296159 1.65000000
      vertex 0.02285761 0.00328861 1.65000000
    endloop
  endfacet
  facet normal 0.000000 0.000000 -1.000000
    outer loop
      vertex 0.02559703 0.00685870 -0.05000000
      vertex 0.02334703 0.00296159 -0.05000000
      vertex 0.02285761 0.00328861 -0.05000000
    endloop
  endfacet
  facet normal 0.000000 0.000000 1.000000
    outer loop
      vertex 0.02559703 0.00685870 1.65000000
      vertex 0.02285761 0.00328861 1.65000000
      vertex 0.02334703 0.00296159 1.65000000
    endloop
  endfacet
  facet normal -0.442289 -0.896873 0.000000
    outer loop
      vertex 0.02334703 0.00296159 -0.05000000
      vertex 0.02387496 0.00270125 -0.05000000
      vertex 0.02387496 0.00270125 1.65000000
    endloop
  endfacet
  facet normal -0.442289 -0.896873 0.000000
    outer loop
      vertex 0.02334703 0.00296159 -0.05000000
      vertex 0.02387496 0.00270125 1.65000000
      vertex 0.02334703 0.00296159 1.65000000
    endloop
  endfacet
  facet normal 0.000000 0.000000 -1.000000
    outer loop
      vertex 0.02559703 0.00685870 -0.05000000
      vertex 0.02387496 0.00270125 -0.05000000
      vertex 0.02334703 0.00296159 -0.05000000
    endloop
  endfacet
  facet normal 0.000000 0.000000 1.000000
    outer loop
      vertex 0.02559703 0.00685870 1.65000000
      vertex 0.02334703 0.00296159 1.65000000
      vertex 0.02387496 0.00270125 1.65000000
    endloop
  endfacet
  facet normal -0.321439 -0.946930 0.000000
    outer loop
      vertex 0.02387496 0.00270125 -0.05000000
      vertex 0.02443235 0.00251204 -0.05000000
      vertex 0.02443235 0.00251204 1.65000000
    endloop
  endfacet
  facet normal -0.321439 -0.946930 0.000000
    outer loop
      vertex 0.02387496 0.00270125 -0.05000000
      vertex 0.02443235 0.00251204 1.65000000
      vertex 0.02387496 0.00270125 1.65000000
    endloop
  endfacet
  facet normal 0.000000 0.000000 -1.000000
    outer loop
      vertex 0.02559703 0.00685870 -0.05000000
      vertex 0.02443235 0.00251204 -0.05000000
      vertex 0.02387496 0.00270125 -0.05000000
    endloop
  endfacet
  facet normal 0.000000 0.000000 1.000000
    outer loop
      vertex 0.02559703 0.00685870 1.65000000
      vertex 0.02387496 0.00270125 1.65000000
      vertex 0.02443235 0.00251204 1.65000000
    endloop
  endfacet
  facet normal -0.195090 -0.980785 0.000000
    outer loop
      vertex 0.02443235 0.00251204 -0.05000000
      vertex 0.02500967 0.00239720 -0.05000000
      vertex 0.02500967 0.00239720 1.65000000
    endloop
  endfacet
  facet normal -0.195090 -0.980785 0.000000
    outer loop
      vertex 0.02443235 0.00251204 -0.05000000
      vertex 0.02500967 0.00239720 1.65000000
      vertex 0.02443235 0.00251204 1.65000000
    endloop
  endfacet
  facet normal 0.000000 0.000000 -1.000000
    outer loop
      vertex 0.02559703 0.00685870 -0.05000000
      vertex 0.02500967 0.00239720 -0.05000000
      vertex 0.02443235 0.00251204 -0.05000000
    endloop
  endfacet
  facet normal 0.000000 0.000000 1.000000
    outer loop
      vertex 0.02559703 0.00685870 1.65000000
      vertex 0.02443235 0.00251204 1.65000000
      vertex 0.02500967 0.00239720 1.65000000
    endloop
  endfacet
  facet normal -0.065403 -0.997859 0.000000
    outer loop
      vertex 0.02500967 0.00239720 -0.05000000
      vertex 0.02559703 0.00235870 -0.05000000
      vertex 0.02559703 0.00235870 1.65000000
    endloop
  endfacet
  facet normal -0.065403 -0.997859 0.000000
    outer loop
      vertex 0.02500967 0.00239720 -0.05000000
      vertex 0.02559703 0.00235870 1.65000000
      vertex 0.02500967 0.00239720 1.65000000
    endloop
  endfacet
  facet normal 0.000000 -0.000000 -1.000000
    outer loop
      vertex 0.02559703 0.00685870 -0.05000000
      vertex 0.02559703 0.00235870 -0.05000000
      vertex 0.02500967 0.00239720 -0.05000000
    endloop
  endfacet
  facet normal 0.000000 0.000000 1.000000
    outer loop
      vertex 0.02559703 0.00685870 1.65000000
      vertex 0.02500967 0.00239720 1.65000000
      vertex 0.02559703 0.00235870 1.65000000
    endloop
  endfacet
  facet normal 0.065403 -0.997859 0.000000
    outer loop
      vertex 0.02559703 0.00235870 -0.05000000
      vertex 0.02618440 0.00239720 -0.05000000
      vertex 0.02618440 0.00239720 1.65000000
    endloop
  endfacet
  facet normal 0.065403 -0.997859 0.000000
    outer loop
      vertex 0.02559703 0.00235870 -0.05000000
      vertex 0.02618440 0.00239720 1.65000000
      vertex 0.02559703 0.00235870 1.65000000
    endloop
  endfacet
  facet normal 0.000000 0.000000 -1.000000
    outer loop
      vertex 0.02559703 0.00685870 -0.05000000
      vertex 0.02618440 0.00239720 -0.05000000
      vertex 0.02559703 0.00235870 -0.05000000
    endloop
  endfacet
  facet normal 0.000000 0.000000 1.000000
    outer loop
      vertex 0.02559703 0.00685870 1.65000000
      vertex 0.02559703 0.00235870 1.65000000
      vertex 0.02618440 0.00239720 1.65000000
    endloop
  endfacet
  facet normal 0.195090 -0.980785 0.000000
    outer loop
      vertex 0.02618440 0.00239720 -0.05000000
      vertex 0.02676172 0.00251204 -0.05000000
      vertex 0.02676172 0.00251204 1.65000000
    endloop
  endfacet
  facet normal 0.195090 -0.980785 0.000000
    outer loop
      vertex 0.02618440 0.00239720 -0.05000000
      vertex 0.02676172 0.00251204 1.65000000
      vertex 0.02618440 0.00239720 1.65000000
    endloop
  endfacet
  facet normal 0.000000 0.000000 -1.000000
    outer loop
      vertex 0.02559703 0.00685870 -0.05000000
      vertex 0.02676172 0.00251204 -0.05000000
      vertex 0.02618440 0.00239720 -0.05000000
    endloop
  endfacet
  facet normal 0.000000 0.000000 1.000000
    outer loop
      vertex 0.02559703 0.00685870 1.65000000
      vertex 0.02618440 0.00239720 1.65000000
      vertex 0.02676172 0.00251204 1.65000000
    endloop
  endfacet
  facet normal 0.321439 -0.946930 0.000000
    outer loop
      vertex 0.02676172 0.00251204 -0.05000000
      vertex 0.02731911 0.00270125 -0.05000000
      vertex 0.02731911 0.00270125 1.65000000
    endloop
  endfacet
  facet normal 0.321439 -0.946930 0.000000
    outer loop
      vertex 0.02676172 0.00251204 -0.05000000
      vertex 0.02731911 0.00270125 1.65000000
      vertex 0.02676172 0.00251204 1.65000000
    endloop
  endfacet
  facet normal 0.000000 0.000000 -1.000000
    outer loop
      vertex 0.02559703 0.00685870 -0.05000000
      vertex 0.02731911 0.00270125 -0.05000000
      vertex 0.02676172 0.00251204 -0.05000000
    endloop
  endfacet
  facet normal 0.000000 0.000000 1.000000
    outer loop
      vertex 0.02559703 0.00685870 1.65000000
      vertex 0.02676172 0.00251204 1.65000000
      vertex 0.02731911 0.00270125 1.65000000
    endloop
  endfacet
  facet normal 0.442289 -0.896873 0.000000
    outer loop
      vertex 0.02731911 0.00270125 -0.05000000
      vertex 0.02784703 0.00296159 -0.05000000
      vertex 0.02784703 0.00296159 1.65000000
    endloop
  endfacet
  facet normal 0.442289 -0.896873 0.000000
    outer loop
      vertex 0.02731911 0.00270125 -0.05000000
      vertex 0.02784703 0.00296159 1.65000000
      vertex 0.02731911 0.00270125 1.65000000
    endloop
  endfacet
  facet normal 0.000000 0.000000 -1.000000
    outer loop
      vertex 0.02559703 0.00685870 -0.05000000
      vertex 0.02784703 0.00296159 -0.05000000
      vertex 0.02731911 0.00270125 -0.05000000
    endloop
  endfacet
  facet normal 0.000000 0.000000 1.000000
    outer loop
      vertex 0.02559703 0.00685870 1.65000000
      vertex 0.02731911 0.00270125 1.65000000
      vertex 0.02784703 0.00296159 1.65000000
    endloop
  endfacet
  facet normal 0.555570 -0.831470 0.000000
    outer loop
      vertex 0.02784703 0.00296159 -0.05000000
      vertex 0.02833646 0.00328861 -0.05000000
      vertex 0.02833646 0.00328861 1.65000000
    endloop
  endfacet
  facet normal 0.555570 -0.831470 0.000000
    outer loop
      vertex 0.02784703 0.00296159 -0.05000000
      vertex 0.02833646 0.00328861 1.65000000
      vertex 0.02784703 0.00296159 1.65000000
    endloop
  endfacet
  facet normal 0.000000 0.000000 -1.000000
    outer loop
      vertex 0.02559703 0.00685870 -0.05000000
      vertex 0.02833646 0.00328861 -0.05000000
      vertex 0.02784703 0.00296159 -0.05000000
    endloop
  endfacet
  facet normal 0.000000 0.000000 1.000000
    outer loop
      vertex 0.02559703 0.00685870 1.65000000
      vertex 0.02784703 0.00296159 1.65000000
      vertex 0.02833646 0.00328861 1.65000000
    endloop
  endfacet
  facet normal 0.659346 -0.751840 0.000000
    outer loop
      vertex 0.02833646 0.00328861 -0.05000000
      vertex 0.02877901 0.00367672 -0.05000000
      vertex 0.02877901 0.00367672 1.65000000
    endloop
  endfacet
  facet normal 0.659346 -0.751840 0.000000
    outer loop
      vertex 0.02833646 0.00328861 -0.05000000
      vertex 0.02877901 0.00367672 1.65000000
      vertex 0.02833646 0.00328861 1.65000000
    endloop
  endfacet
  facet normal 0.000000 0.000000 -1.000000
    outer loop
      vertex 0.02559703 0.00685870 -0.05000000
      vertex 0.02877901 0.00367672 -0.05000000
      vertex 0.02833646 0.00328861 -0.05000000
    endloop
  endfacet
  facet normal 0.000000 0.000000 1.000000
    outer loop
      vertex 0.02559703 0.00685870 1.65000000
      vertex 0.02833646 0.00328861 1.65000000
      vertex 0.02877901 0.00367672 1.65000000
    endloop
  endfacet
  facet normal 0.751840 -0.659346 0.000000
    outer loop
      vertex 0.02877901 0.00367672 -0.05000000
      vertex 0.02916712 0.00411928 -0.05000000
      vertex 0.02916712 0.00411928 1.65000000
    endloop
  endfacet
  facet normal 0.751840 -0.659346 0.000000
    outer loop
      vertex 0.02877901 0.00367672 -0.05000000
      vertex 0.02916712 0.00411928 1.65000000
      vertex 0.02877901 0.00367672 1.65000000
    endloop
  endfacet
  facet normal 0.000000 0.000000 -1.000000
    outer loop
      vertex 0.02559703 0.00685870 -0.05000000
      vertex 0.02916712 0.00411928 -0.05000000
      vertex 0.02877901 0.00367672 -0.05000000
    endloop
  endfacet
  facet normal 0.000000 0.000000 1.000000
    outer loop
      vertex 0.02559703 0.00685870 1.65000000
      vertex 0.02877901 0.00367672 1.65000000
      vertex 0.02916712 0.00411928 1.65000000
    endloop
  endfacet
  facet normal 0.831470 -0.555570 0.000000
    outer loop
      vertex 0.02916712 0.00411928 -0.05000000
      vertex 0.02949415 0.00460870 -0.05000000
      vertex 0.02949415 0.00460870 1.65000000
    endloop
  endfacet
  facet normal 0.831470 -0.555570 0.000000
    outer loop
      vertex 0.02916712 0.00411928 -0.05000000
      vertex 0.02949415 0.00460870 1.65000000
      vertex 0.02916712 0.00411928 1.65000000
    endloop
  endfacet
  facet normal 0.000000 0.000000 -1.000000
    outer loop
      vertex 0.02559703 0.00685870 -0.05000000
      vertex 0.02949415 0.00460870 -0.05000000
      vertex 0.02916712 0.00411928 -0.05000000
    endloop
  endfacet
  facet normal 0.000000 0.000000 1.000000
    outer loop
      vertex 0.02559703 0.00685870 1.65000000
      vertex 0.02916712 0.00411928 1.65000000
      vertex 0.02949415 0.00460870 1.65000000
    endloop
  endfacet
  facet normal 0.896873 -0.442289 0.000000
    outer loop
      vertex 0.02949415 0.00460870 -0.05000000
      vertex 0.02975449 0.00513663 -0.05000000
      vertex 0.02975449 0.00513663 1.65000000
    endloop
  endfacet
  facet normal 0.896873 -0.442289 0.000000
    outer loop
      vertex 0.02949415 0.00460870 -0.05000000
      vertex 0.02975449 0.00513663 1.65000000
      vertex 0.02949415 0.00460870 1.65000000
    endloop
  endfacet
  facet normal 0.000000 0.000000 -1.000000
    outer loop
      vertex 0.02559703 0.00685870 -0.05000000
      vertex 0.02975449 0.00513663 -0.05000000
      vertex 0.02949415 0.00460870 -0.05000000
    endloop
  endfacet
  facet normal 0.000000 0.000000 1.000000
    outer loop
      vertex 0.02559703 0.00685870 1.65000000
      vertex 0.02949415 0.00460870 1.65000000
      vertex 0.02975449 0.00513663 1.65000000
    endloop
  endfacet
  facet normal 0.946930 -0.321439 0.000000
    outer loop
      vertex 0.02975449 0.00513663 -0.05000000
      vertex 0.02994370 0.00569402 -0.05000000
      vertex 0.02994370 0.00569402 1.65000000
    endloop
  endfacet
  facet normal 0.946930 -0.321439 0.000000
    outer loop
      vertex 0.02975449 0.00513663 -0.05000000
      vertex 0.02994370 0.00569402 1.65000000
      vertex 0.02975449 0.00513663 1.65000000
    endloop
  endfacet
  facet normal 0.000000 0.000000 -1.000000
    outer loop
      vertex 0.02559703 0.00685870 -0.05000000
      vertex 0.02994370 0.00569402 -0.05000000
      vertex 0.02975449 0.00513663 -0.05000000
    endloop
  endfacet
  facet normal 0.000000 0.000000 1.000000
    outer loop
      vertex 0.02559703 0.00685870 1.65000000
      vertex 0.02975449 0.00513663 1.65000000
      vertex 0.02994370 0.00569402 1.65000000
    endloop
  endfacet
  facet normal 0.980785 -0.195090 0.000000
    outer loop
      vertex 0.02994370 0.00569402 -0.05000000
      vertex 0.03005854 0.00627134 -0.05000000
      vertex 0.03005854 0.00627134 1.65000000
    endloop
  endfacet
  facet normal 0.980785 -0.195090 0.000000
    outer loop
      vertex 0.02994370 0.00569402 -0.05000000
      vertex 0.03005854 0.00627134 1.65000000
      vertex 0.02994370 0.00569402 1.65000000
    endloop
  endfacet
  facet normal 0.000000 0.000000 -1.000000
    outer loop
      vertex 0.02559703 0.00685870 -0.05000000
      vertex 0.03005854 0.00627134 -0.05000000
      vertex 0.02994370 0.00569402 -0.05000000
    endloop
  endfacet
  facet normal 0.000000 0.000000 1.000000
    outer loop
      vertex 0.02559703 0.00685870 1.65000000
      vertex 0.02994370 0.00569402 1.65000000
      vertex 0.03005854 0.00627134 1.65000000
    endloop
  endfacet
  facet normal 0.997859 -0.065403 0.000000
    outer loop
      vertex 0.03005854 0.00627134 -0.05000000
      vertex 0.03009703 0.00685870 -0.05000000
      vertex 0.03009703 0.00685870 1.65000000
    endloop
  endfacet
  facet normal 0.997859 -0.065403 0.000000
    outer loop
      vertex 0.03005854 0.00627134 -0.05000000
      vertex 0.03009703 0.00685870 1.65000000
      vertex 0.03005854 0.00627134 1.65000000
    endloop
  endfacet
  facet normal 0.000000 0.000000 -1.000000
    outer loop
      vertex 0.02559703 0.00685870 -0.05000000
      vertex 0.03009703 0.00685870 -0.05000000
      vertex 0.03005854 0.00627134 -0.05000000
    endloop
  endfacet
  facet normal -0.000000 0.000000 1.000000
    outer loop
      vertex 0.02559703 0.00685870 1.65000000
      vertex 0.03005854 0.00627134 1.65000000
      vertex 0.03009703 0.00685870 1.65000000
    endloop
  endfacet
endsolid cylinder
